<?xml version="1.0" encoding="utf-8"?>
<!-- Generator: Adobe Illustrator 24.1.2, SVG Export Plug-In . SVG Version: 6.00 Build 0)  -->
<svg version="1.1" id="a1f75fc3-9e42-4fc1-bde4-b430080f0daf"
	 xmlns="http://www.w3.org/2000/svg" xmlns:xlink="http://www.w3.org/1999/xlink" x="0px" y="0px" viewBox="0 0 679 710.5"
	 style="enable-background:new 0 0 679 710.5;" xml:space="preserve">
<style type="text/css">
	.st0{fill:#FF6584;}
	.st1{fill:#FFFFFF;}
	.st2{fill:#E6E6E6;}
	.st3{fill:#3F3D56;}
	.st4{fill:#6C63FF;}
</style>
<ellipse transform="matrix(0.7071 -0.7071 0.7071 0.7071 -7.5173 405.2231)" class="st0" cx="485.4" cy="211.7" rx="75.4" ry="75.4"/>
<path class="st1" d="M692.1,267.9c0.2,0,0.3-0.1,0.5-0.1c-0.1-0.3-0.2-0.6-0.3-1c-0.2,0.3-0.5,0.7-0.7,1L692.1,267.9z"/>
<path class="st2" d="M186.6,390.1c0.4,16.4,3.2,32.7,8.2,48.4c0.1,0.4,0.2,0.7,0.4,1.1h30.5c0-0.3-0.1-0.7-0.1-1.1
	c-2-23.4-13.8-165.9,0.3-190.2C224.6,250.2,184.3,315.7,186.6,390.1z"/>
<path class="st2" d="M188.9,438.5c0.3,0.4,0.5,0.7,0.8,1.1h22.9c-0.2-0.3-0.4-0.7-0.6-1.1c-3.8-6.8-15-27.2-25.4-48.4
	c-11.2-22.7-21.4-46.4-20.6-54.9C165.8,337.1,158.1,395.8,188.9,438.5z"/>
<path class="st2" d="M426.9,442.4c-0.4,14.3-2.8,28.5-7.1,42.2c-0.1,0.3-0.2,0.6-0.3,0.9h-26.6c0-0.3,0.1-0.6,0.1-0.9
	c1.8-20.4,12-144.6-0.2-165.8C393.8,320.5,429,377.6,426.9,442.4z"/>
<path class="st2" d="M424.9,484.6c-0.2,0.3-0.5,0.6-0.7,0.9h-20c0.2-0.3,0.3-0.6,0.5-0.9c3.3-6,13.1-23.8,22.1-42.2
	c9.7-19.8,18.7-40.4,17.9-47.9C445.1,396.2,451.8,447.4,424.9,484.6z"/>
<path class="st3" d="M679.1,361.9c0,8.2-0.3,16.4-0.9,24.5c-4.4,63.8-26.6,125.2-63.9,177.1c-4.9,6.8-10,13.4-15.4,19.9
	c-13.9,16.7-29.4,32-46.2,45.8L479.2,586l-44-102.7c0,0,65.6-132.9,243.8-130.5C679.1,355.9,679.1,358.9,679.1,361.9z"/>
<path class="st4" d="M678.2,386.4c-6.8,96.5-53.7,185.6-129.3,246l-68.3-40.1l-39-91.1C441.6,501.2,504.8,373.2,678.2,386.4z"/>
<path class="st3" d="M614.3,563.5c-4.9,6.8-10,13.4-15.4,19.9c-36,43.2-82,77.1-134,98.5c-10.5,4.3-21.3,8.2-32.3,11.5
	c-79.6,21.2-164,15.8-240.2-15.3C116.9,644.5,56,585,20.4,510.4c-4.8-10-9.1-20.3-12.9-30.9C74.1,430.8,205.1,361,348,428.8
	c39.5,18.8,74.8,35.9,105.9,51.3C532.7,519.1,585.1,547.3,614.3,563.5z"/>
<path class="st4" d="M598.9,583.4c-122.5,146.8-340.9,166.6-487.7,44c-38.4-32-69.3-71.9-90.8-117c55.6-43.9,183.7-122.9,324.3-56.2
	c36.2,17.2,68.5,32.8,96.9,46.9C524.4,542.2,575.4,570.1,598.9,583.4z"/>
<path class="st3" d="M500.9,664.6c-11.6,6.4-23.6,12.2-35.9,17.3c-41.8,17.2-86.7,26.1-131.9,26c-108.5,0-210.8-51-276.2-137.6
	C139.5,561.6,367.9,549.9,500.9,664.6z"/>
<path class="st4" d="M465,681.9C332.2,736.5,179.4,703.5,81,599C111.1,594.6,347.1,564.2,465,681.9z"/>
<path class="st2" d="M621.1,170L621.1,170C374-12.7,90.9,115.9,88.7,116.9v0c64.8-64.8,152.7-101.1,244.4-101
	C453.2,15.8,559,77.1,621.1,170z"/>
<ellipse transform="matrix(0.9841 -0.1774 0.1774 0.9841 -36.6847 18.1139)" class="st3" cx="82.9" cy="214.2" rx="76.9" ry="156.9"/>
<path class="st4" d="M119.3,468.2c-2.5-187.3-65.2-363.1-65.8-364.9l-5.7,2.1c0.6,1.7,63,176.6,65.4,362.9L119.3,468.2z"/>
<rect x="41.6" y="168.6" transform="matrix(0.3077 -0.9515 0.9515 0.3077 -167.0082 186.4599)" class="st4" width="6.1" height="78.9"/>
<rect x="80.7" y="210.3" transform="matrix(0.7839 -0.6208 0.6208 0.7839 -106.4752 120.7035)" class="st4" width="78.9" height="6.1"/>
<ellipse class="st3" cx="309.5" cy="171.8" rx="83.2" ry="169.8"/>
<path class="st4" d="M301.8,449.7c33.3-200,0.3-399.2,0-401.2l-6.5,1.1c0.3,2,33.1,200.2,0,399L301.8,449.7z"/>
<rect x="269" y="115.6" transform="matrix(0.4717 -0.8818 0.8818 0.4717 4.2884 323.7535)" class="st4" width="6.6" height="85.3"/>
<rect x="309.1" y="175.2" transform="matrix(0.8816 -0.4719 0.4719 0.8816 -42.5939 187.1074)" class="st4" width="85.3" height="6.6"/>
</svg>
